# xmcd
#
# Track frame offsets:
#	150
#	13562
#	38780
#	58815
#	72435
#	88230
#	105025
#	114400
#	125277
#	146940
#
# Disc length: 2300 seconds
#
# Revision: 8
# Processed by: cddbd v1.5.2PL0 Copyright (c) Steve Scherf et al.
# Submitted via: audiograbber 1.83.01
#
DISCID=8608fa0a
DTITLE=Various Artist - Forever Soul 1 (Sony Music SPECIAL EDITIONS)
DYEAR=1997
DGENRE=Soul
TTITLE0=The O'Jays - Love Train
TTITLE1=The Isley Brothers - Who's That Lady (Prt 1 and 2)
TTITLE2=Johnnie Taylor - Disco Lady
TTITLE3=Sly and The Family Stone - Family Affair
TTITLE4=The Manhattans - Kiss and Say Goodbye
TTITLE5=Cheryl Lynn - Got to Be Real
TTITLE6=Bill Withers - Ain't No Sunshine
TTITLE7=The Intruders - (Win, Place or Show) She's A Winner
TTITLE8=The Chambers Brothers - Time Has Come Today
TTITLE9=MFSB featuring The Three Degrees - TSOP (The Sound Of Philadelphia)
EXTD=IDK 85166
EXTT0=
EXTT1=
EXTT2=
EXTT3=
EXTT4=
EXTT5=
EXTT6=
EXTT7=
EXTT8=
EXTT9=
PLAYORDER=
